<?xml version="1.0" encoding="UTF-8"?>
<svg width="312px" height="35px" viewBox="0 0 312 35" version="1.1" xmlns="http://www.w3.org/2000/svg" xmlns:xlink="http://www.w3.org/1999/xlink">
    <title>E1DFDF6E-ABC0-464A-93A0-4E11F3E332AB</title>
    <g id="Desktop" stroke="none" stroke-width="1" fill="none" fill-rule="evenodd">
        <g id="Groupe-Capvest" transform="translate(-100.000000, -5445.000000)" fill="#344856" fill-rule="nonzero">
            <g id="FILIALES" transform="translate(100.000000, 3960.000000)">
                <g id="Groupe-Capvest-logo-filiales-CapvestAdvis-LDA" transform="translate(0.000000, 1485.000000)">
                    <path d="M24,19.6983655 C24,19.9816741 23.8101695,20.9668153 23.4305085,22.653789 C23.0508475,24.3407628 22.779661,25.2228826 22.6169492,25.3001486 C20.6372881,26.4333829 17.3966102,27 12.8949153,27 C9.31525424,27 6.27118644,25.7508668 3.76271186,23.2526003 C1.25423729,20.7543338 0,17.7795939 0,14.3283804 C0,10.6711243 1.28813559,7.53541357 3.86440678,4.92124814 C6.44067797,2.30708271 9.6,1 13.3423729,1 C16.5423729,1 19.8372881,1.32194156 23.2271186,1.96582467 C23.1728814,5.41703814 23.1457627,7.2714215 23.1457627,7.52897474 C23.1457627,7.91530461 22.8610169,8.10846954 22.2915254,8.10846954 C22.020339,8.10846954 21.8440678,8.04408123 21.7627119,7.91530461 C21.6813559,7.58048539 21.579661,7.23922734 21.4576271,6.89153046 C21.3355932,6.54383358 21.0779661,6.0931154 20.6847458,5.53937593 C20.2915254,4.98563645 19.8169492,4.50916295 19.2610169,4.10995542 C18.7050847,3.71074789 17.9186441,3.36305102 16.9016949,3.06686478 C15.8847458,2.77067855 14.7389831,2.62258544 13.4644068,2.62258544 C10.8067797,2.62258544 8.54237288,3.73650322 6.67118644,5.96433878 C4.8,8.19217434 3.86440678,10.7097573 3.86440678,13.5170877 C3.86440678,15.6032689 4.2440678,17.5220406 5.00338983,19.2734027 C5.76271186,21.0247647 6.96271186,22.4735017 8.60338983,23.6196137 C10.2440678,24.7657256 12.1898305,25.3387816 14.440678,25.3387816 C17.1254237,25.3387816 19.2,24.5918772 20.6644068,23.0980684 C21.0440678,22.7117385 21.3762712,22.2030708 21.6610169,21.5720654 C21.9457627,20.9410599 22.1627119,20.4130758 22.3118644,19.9881129 C22.4610169,19.5631501 22.5762712,19.3506686 22.6576271,19.3506686 C22.820339,19.3506686 23.0169492,19.376424 23.2474576,19.4279346 C23.4779661,19.4794453 23.6610169,19.5309559 23.7966102,19.5824666 L24,19.6983655 Z" id="Path"></path>
                    <path d="M30.2751323,24.275395 C30.7548501,24.6335591 31.3756614,24.8126411 32.1375661,24.8126411 C32.8994709,24.8126411 33.633157,24.6015801 34.3386243,24.1794582 C35.0440917,23.7573363 35.3968254,23.3288187 35.3968254,22.8939052 L35.3968254,18.9413093 C35.1710758,19.0436418 34.6208113,19.2227239 33.7460317,19.4785553 C32.8712522,19.7343868 32.1869489,19.9582393 31.6931217,20.1501129 C31.1992945,20.3419865 30.7195767,20.6617758 30.2539683,21.1094808 C29.7883598,21.5571859 29.5555556,22.0752445 29.5555556,22.6636569 C29.5555556,23.3544018 29.7954145,23.8916479 30.2751323,24.275395 Z M34.2539683,10 C35.8059965,10 36.9206349,10.3389767 37.5978836,11.01693 C38.2751323,11.6948834 38.6137566,12.7885628 38.6137566,14.2979684 L38.6137566,23.1625282 C38.6137566,23.6997743 38.7689594,24.1474793 39.0793651,24.5056433 C39.3897707,24.8638074 39.8130511,25.0428894 40.3492063,25.0428894 C40.7442681,25.0428894 41.2380952,24.8638074 41.8306878,24.5056433 C41.9435626,24.5056433 42,24.6079759 42,24.8126411 C42,25.145222 41.9294533,25.413845 41.7883598,25.6185102 C40.6313933,26.5139202 39.643739,26.9616253 38.8253968,26.9616253 C38.1763668,26.9616253 37.5555556,26.7185854 36.962963,26.2325056 C36.3703704,25.7464259 35.9611993,25.234763 35.7354497,24.6975169 C35.707231,24.6975169 35.6014109,24.7806622 35.4179894,24.9469526 C35.2345679,25.113243 34.9876543,25.3051166 34.6772487,25.5225734 C34.366843,25.7400301 34.0070547,25.9638826 33.5978836,26.1941309 C33.1887125,26.4243792 32.7089947,26.6162528 32.1587302,26.7697517 C31.6084656,26.9232506 31.0511464,27 30.4867725,27 C29.1887125,27 28.1164021,26.6866065 27.2698413,26.0598194 C26.4232804,25.4330324 26,24.4928518 26,23.2392777 C26,22.6764485 26.1552028,22.1455982 26.4656085,21.6467269 C26.7760141,21.1478555 27.1428571,20.7385252 27.5661376,20.4187359 C27.989418,20.0989466 28.5679012,19.7727615 29.3015873,19.4401806 C30.0352734,19.1075997 30.6631393,18.858164 31.1851852,18.6918736 C31.707231,18.5255831 32.3915344,18.3145222 33.2380952,18.0586907 C34.0846561,17.8028593 34.6772487,17.6109857 35.015873,17.48307 C35.2698413,17.4063205 35.3968254,17.214447 35.3968254,16.9074492 L35.3968254,14.0293454 C35.3968254,13.2106847 35.1146384,12.5775019 34.5502646,12.1297968 C33.9858907,11.6820918 33.308642,11.4582393 32.5185185,11.4582393 C31.6719577,11.4582393 30.9664903,11.7204665 30.4021164,12.244921 C29.8377425,12.7693755 29.5555556,13.4537246 29.5555556,14.2979684 C29.5555556,15.1933785 28.9770723,15.6410835 27.8201058,15.6410835 C27.0299824,15.6410835 26.4797178,15.3980436 26.1693122,14.9119639 C26.1693122,13.8118886 27.0582011,12.7182092 28.8359788,11.6309255 C30.6137566,10.5436418 32.4197531,10 34.2539683,10 Z" id="Shape"></path>
                    <path d="M53.5,10 C56.1666667,10 58.25,10.8119335 59.75,12.4358006 C61.25,14.0596677 62,15.7905337 62,17.6283988 C62,20.0453172 61.0694444,22.172709 59.2083333,24.010574 C57.3472222,25.8484391 55.2361111,26.7673716 52.875,26.7673716 C52.4583333,26.7673716 52.0902778,26.7547835 51.7708333,26.7296073 C51.4513889,26.704431 51.1666667,26.6603726 50.9166667,26.597432 C50.6666667,26.5344914 50.4722222,26.4778449 50.3333333,26.4274924 C50.1944444,26.37714 50.0138889,26.3079053 49.7916667,26.2197885 C49.5694444,26.1316717 49.4305556,26.0750252 49.375,26.0498489 C49.2638889,26.1757301 49.2083333,26.3393756 49.2083333,26.5407855 L49.2083333,29.7885196 C49.2083333,31.2487412 49.3194444,32.3690836 49.5416667,33.1495468 C49.5972222,33.3257805 49.9583333,33.49572 50.625,33.6593656 C51.2916667,33.8230111 51.7638889,33.9048338 52.0416667,33.9048338 C52.125,33.9048338 52.1805556,34.0621853 52.2083333,34.3768882 C52.2361111,34.6915911 52.2222222,34.8992951 52.1666667,35 C49.3888889,34.8741188 47.9027778,34.8111782 47.7083333,34.8111782 C47.5416667,34.8111782 46.0277778,34.8741188 43.1666667,35 C43.0555556,34.8992951 43,34.6915911 43,34.3768882 C43,34.0621853 43.0555556,33.9048338 43.1666667,33.9048338 C43.5,33.9048338 43.9930556,33.8230111 44.6458333,33.6593656 C45.2986111,33.49572 45.6527778,33.3257805 45.7083333,33.1495468 C45.9027778,32.4194361 46,31.5382679 46,30.5060423 L46,14.9093656 C46,13.9274924 45.8055556,13.2477341 45.4166667,12.8700906 C45.1388889,12.5679758 44.7986111,12.3602719 44.3958333,12.2469789 C43.9930556,12.1336858 43.6597222,12.0770393 43.3958333,12.0770393 C43.1319444,12.0770393 43,12.051863 43,12.0015106 C43,11.397281 43.0833333,11.082578 43.25,11.0574018 C46.1944444,10.6545821 48.1111111,10.327291 49,10.0755287 C49.0277778,10.0755287 49.0694444,10.0692346 49.125,10.0566465 C49.1805556,10.0440584 49.2083333,10.0377644 49.2083333,10.0377644 C49.2916667,10.0377644 49.3333333,10.106999 49.3333333,10.2454683 C49.3333333,10.3839376 49.3194444,10.5538771 49.2916667,10.755287 C49.2638889,10.9566969 49.25,11.0699899 49.25,11.0951662 L49.25,11.3217523 C49.6388889,11.0699899 50.2847222,10.7867573 51.1875,10.4720544 C52.0902778,10.1573515 52.8611111,10 53.5,10 Z M52.1666667,11.8504532 C51.3055556,11.8504532 50.5972222,12.0581571 50.0416667,12.473565 C49.4861111,12.8889728 49.2083333,13.4869084 49.2083333,14.2673716 L49.2083333,22.7643505 C49.2083333,23.4441088 49.6111111,24.0168681 50.4166667,24.4826284 C51.2222222,24.9483887 52.0972222,25.1812689 53.0416667,25.1812689 C54.6805556,25.1812689 55.9861111,24.5140987 56.9583333,23.1797583 C57.9305556,21.8454179 58.4166667,20.347432 58.4166667,18.6858006 C58.4166667,16.570997 57.7986111,14.9030715 56.5625,13.6820242 C55.3263889,12.4609768 53.8611111,11.8504532 52.1666667,11.8504532 Z" id="Shape"></path>
                    <path d="M78.8529412,12.3303371 C78.8529412,11.5153558 77.8647059,11.1078652 75.8882353,11.1078652 C75.7784314,11.1078652 75.7235294,10.9486891 75.7235294,10.6303371 C75.7235294,10.311985 75.7784314,10.1018727 75.8882353,10 C76.1901961,10.0254682 76.7529412,10.0636704 77.5764706,10.1146067 C78.4,10.1655431 79.1411765,10.1910112 79.8,10.1910112 L83.9176471,10 C83.972549,10.152809 84,10.3438202 84,10.5730337 C84,10.929588 83.9039216,11.1078652 83.7117647,11.1078652 C83.327451,11.1078652 82.8196078,11.2097378 82.1882353,11.4134831 C81.5568627,11.6172285 81.1313725,11.9483146 80.9117647,12.4067416 L74.3647059,26.1213483 C74.3098039,26.2996255 74.145098,26.4906367 73.8705882,26.694382 C73.5960784,26.8981273 73.3627451,27 73.1705882,27 C72.9784314,27 72.854902,26.9490637 72.8,26.847191 C72.3333333,25.9048689 71.3107843,23.7146067 69.7323529,20.2764045 C68.1539216,16.8382022 66.7745098,14.0367041 65.5941176,11.8719101 C65.3196078,11.3625468 64.5098039,11.1078652 63.1647059,11.1078652 C63.054902,11.1078652 63,10.9423221 63,10.611236 C63,10.305618 63.054902,10.1018727 63.1647059,10 C65.9921569,10.1273408 67.4196078,10.1910112 67.4470588,10.1910112 L71.5647059,10 C71.6196078,10.1018727 71.6264706,10.311985 71.5852941,10.6303371 C71.5441176,10.9486891 71.4823529,11.1078652 71.4,11.1078652 C70.054902,11.1078652 69.3823529,11.3243446 69.3823529,11.7573034 C69.3823529,11.8082397 69.3960784,11.859176 69.4235294,11.9101124 L74.3647059,22.2629213 L78.5235294,13.4764045 C78.7431373,12.9925094 78.8529412,12.6104869 78.8529412,12.3303371 Z" id="Path"></path>
                    <path d="M92.6630435,11.4230769 C91.25,11.4230769 90.169837,11.9935897 89.4225543,13.1346154 C88.6752717,14.275641 88.3016304,15.2179487 88.3016304,15.9615385 C88.3016304,16.1410256 88.3831522,16.2307692 88.5461957,16.2307692 L96.4945652,16.2307692 C96.6304348,16.2307692 96.6983696,16.1025641 96.6983696,15.8461538 C96.6983696,15.025641 96.3315217,14.0833333 95.5978261,13.0192308 C94.8641304,11.9551282 93.8858696,11.4230769 92.6630435,11.4230769 Z M93.0706522,10 C94.3206522,10 95.4211957,10.224359 96.3722826,10.6730769 C97.3233696,11.1217949 98.0502717,11.6987179 98.5529891,12.4038462 C99.0557065,13.1089744 99.4225543,13.8269231 99.6535326,14.5576923 C99.8845109,15.2884615 100,16.0128205 100,16.7307692 C100,17.2435897 99.9184783,17.5576923 99.7554348,17.6730769 C99.5923913,17.7884615 99.2798913,17.8461538 98.8179348,17.8461538 L88.5461957,17.8461538 C88.3288043,17.8461538 88.2201087,17.9102564 88.2201087,18.0384615 C88.2201087,19.6538462 88.736413,21.1410256 89.7690217,22.5 C90.8016304,23.8589744 92.2961957,24.5384615 94.2527174,24.5384615 C94.8233696,24.5384615 95.3668478,24.4871795 95.8831522,24.3846154 C96.3994565,24.2820513 96.8410326,24.1602564 97.2078804,24.0192308 C97.5747283,23.8782051 97.8872283,23.7371795 98.1453804,23.5961538 C98.4035326,23.4551282 98.6277174,23.3205128 98.8179348,23.1923077 L99.1032609,23 C99.2663043,23 99.3478261,23.1666667 99.3478261,23.5 C99.3478261,23.7051282 99.2663043,23.9358974 99.1032609,24.1923077 C98.5597826,24.9102564 97.7581522,25.5576923 96.6983696,26.1346154 C95.638587,26.7115385 94.4836957,27 93.2336957,27 C90.9782609,27 89.0421196,26.1987179 87.4252717,24.5961538 C85.8084239,22.9935897 85,21.0384615 85,18.7307692 C85,16.0384615 85.767663,13.9102564 87.3029891,12.3461538 C88.8383152,10.7820513 90.7608696,10 93.0706522,10 Z" id="Shape"></path>
                    <path d="M109.25,10 C109.861111,10 110.631944,10.0695685 111.5625,10.2087054 C112.493056,10.3478423 113.138889,10.4427083 113.5,10.4933036 C113.777778,11.656994 113.944444,12.9471726 114,14.3638393 C114,14.4903274 113.819444,14.5535714 113.458333,14.5535714 C113.069444,14.5535714 112.861111,14.4650298 112.833333,14.2879464 C112.694444,13.5796131 112.298611,12.9092262 111.645833,12.2767857 C110.993056,11.6443452 110.25,11.328125 109.416667,11.328125 C107.416667,11.328125 106.416667,12.0744048 106.416667,13.5669643 C106.416667,13.9464286 106.472222,14.281622 106.583333,14.5725446 C106.694444,14.8634673 106.909722,15.1417411 107.229167,15.4073661 C107.548611,15.6729911 107.791667,15.8627232 107.958333,15.9765625 C108.125,16.0904018 108.493056,16.2927827 109.0625,16.5837054 C109.631944,16.874628 109.986111,17.0580357 110.125,17.1339286 C110.236111,17.1845238 110.5625,17.3552827 111.104167,17.6462054 C111.645833,17.937128 112.027778,18.1458333 112.25,18.2723214 C112.472222,18.3988095 112.798611,18.6138393 113.229167,18.9174107 C113.659722,19.2209821 113.972222,19.4929315 114.166667,19.7332589 C114.361111,19.9735863 114.548611,20.2771577 114.729167,20.6439732 C114.909722,21.0107887 115,21.3839286 115,21.7633929 C115,23.2559524 114.361111,24.5018601 113.083333,25.5011161 C111.805556,26.500372 110.305556,27 108.583333,27 C108,27 107.465278,26.968378 106.979167,26.9051339 C106.493056,26.8418899 105.916667,26.734375 105.25,26.5825893 C104.583333,26.4308036 104.069444,26.3296131 103.708333,26.2790179 C103.541667,25.874256 103.381944,25.2418155 103.229167,24.3816964 C103.076389,23.5215774 103,22.8385417 103,22.3325893 C103.222222,22.1808036 103.388889,22.1049107 103.5,22.1049107 C103.916667,22.1049107 104.138889,22.1808036 104.166667,22.3325893 C104.333333,23.0915179 104.854167,23.8314732 105.729167,24.5524554 C106.604167,25.2734375 107.555556,25.6339286 108.583333,25.6339286 C109.472222,25.6339286 110.201389,25.4125744 110.770833,24.9698661 C111.340278,24.5271577 111.625,23.8883929 111.625,23.0535714 C111.625,22.6235119 111.534722,22.2250744 111.354167,21.8582589 C111.173611,21.4914435 110.881944,21.1625744 110.479167,20.8716518 C110.076389,20.5807292 109.701389,20.3404018 109.354167,20.1506696 C109.006944,19.9609375 108.513889,19.7142857 107.875,19.4107143 C107.236111,19.1071429 106.763889,18.8668155 106.458333,18.6897321 C104.291667,17.5513393 103.208333,16.1979167 103.208333,14.6294643 C103.208333,13.2633929 103.8125,12.1502976 105.020833,11.2901786 C106.229167,10.4300595 107.638889,10 109.25,10 Z" id="Path"></path>
                    <path d="M118.605613,12.7035647 L116.206795,12.7035647 C116.068932,12.7035647 116,12.4409006 116,11.9155722 C116,11.7654784 116.013786,11.6779237 116.041359,11.6529081 C116.840965,11.3277048 117.709503,10.6647905 118.646972,9.6641651 C118.950271,9.33896185 119.246677,8.96998124 119.536189,8.55722326 C119.825702,8.14446529 120.066962,7.7879925 120.25997,7.48780488 C120.452979,7.18761726 120.549483,7.02501563 120.549483,7 C121.376662,7 121.790251,7.06253909 121.790251,7.18761726 L121.790251,10.902439 C122.507139,10.902439 123.596258,10.9086929 125.057607,10.9212008 C126.518956,10.9337086 127.29099,10.9399625 127.373708,10.9399625 C127.594289,10.9399625 127.704579,11.0525328 127.704579,11.2776735 C127.704579,11.727955 127.566716,12.203252 127.29099,12.7035647 L121.790251,12.7035647 L121.790251,21.8968105 C121.790251,22.8974359 122.072871,23.6979362 122.638109,24.2983114 C123.203348,24.8986867 123.940916,25.1988743 124.850812,25.1988743 C125.677991,25.1988743 126.532742,24.9612258 127.415066,24.4859287 C127.497784,24.4358974 127.621861,24.5422139 127.787297,24.804878 C127.952733,25.0675422 128.021664,25.2113821 127.994092,25.2363977 C127.580502,25.6366479 126.946332,26.0306442 126.091581,26.4183865 C125.236829,26.8061288 124.354505,27 123.444609,27 C122.065977,27 120.91482,26.587242 119.991137,25.7617261 C119.067454,24.9362101 118.605613,23.7604753 118.605613,22.2345216 L118.605613,12.7035647 Z" id="Path"></path>
                    <path d="M143.885449,2.11261261 L151.934985,21.9324324 C152.417957,23.1086086 152.807018,24.0095095 153.102167,24.6351351 C153.263158,25.0105105 153.679051,25.3170671 154.349845,25.5548048 C155.02064,25.7925425 155.517028,25.9114114 155.839009,25.9114114 C155.946336,25.9114114 156,26.1491491 156,26.6246246 C156,26.7247247 155.973168,26.8498498 155.919505,27 C153.236326,26.8748749 151.760578,26.8123123 151.49226,26.8123123 C151.465428,26.8123123 149.909185,26.8748749 146.823529,27 C146.716202,26.8998999 146.669247,26.6934434 146.682663,26.3806306 C146.696078,26.0678178 146.75645,25.9114114 146.863777,25.9114114 C147.185759,25.9114114 147.588235,25.8488488 148.071207,25.7237237 C148.55418,25.5985986 148.835913,25.4359359 148.916409,25.2357357 C148.970072,25.0355355 148.996904,24.8353353 148.996904,24.6351351 C148.996904,24.3098098 148.949948,23.9281782 148.856037,23.4902402 C148.762126,23.0523023 148.674923,22.7082082 148.594427,22.457958 L148.433437,22.045045 L146.783282,17.8033033 C146.702786,17.7032032 146.622291,17.6531532 146.541796,17.6531532 C145.495356,17.5780781 144.475748,17.5405405 143.482972,17.5405405 C142.087719,17.5405405 140.383901,17.6031031 138.371517,17.7282282 L138.170279,17.8408408 L136.439628,21.96997 C135.983488,23.2212212 135.755418,24.0845846 135.755418,24.5600601 C135.755418,24.9104104 135.862745,25.1606607 136.077399,25.3108108 C136.318885,25.485986 136.707946,25.6298799 137.244582,25.7424925 C137.781218,25.8551051 138.170279,25.9114114 138.411765,25.9114114 C138.49226,25.9114114 138.539216,26.0615616 138.552632,26.3618619 C138.566047,26.6621622 138.545924,26.8748749 138.49226,27 C135.809082,26.8748749 134.427245,26.8123123 134.346749,26.8123123 C133.810114,26.8123123 133.340557,26.8248248 132.93808,26.8498498 C132.535604,26.8748749 132.086171,26.8998999 131.589783,26.9249249 C131.093395,26.9499499 130.617131,26.974975 130.160991,27 C130.053664,26.8998999 130,26.7122122 130,26.4369369 C130,26.0865866 130.053664,25.9114114 130.160991,25.9114114 C130.482972,25.9114114 130.898865,25.8488488 131.408669,25.7237237 C131.918473,25.5985986 132.267286,25.4234234 132.455108,25.1981982 C133.018576,24.5225225 133.649123,23.3463463 134.346749,21.6696697 L141.349845,4.89039039 C141.403509,4.76526527 141.477296,4.56506507 141.571207,4.28978979 C141.665119,4.01451451 141.738906,3.80805806 141.79257,3.67042042 C141.846233,3.53278278 141.926729,3.35760761 142.034056,3.14489489 C142.141383,2.93218218 142.235294,2.77577578 142.315789,2.67567568 C142.396285,2.57557558 142.496904,2.46296296 142.617647,2.33783784 C142.73839,2.21271271 142.872549,2.12512513 143.020124,2.07507508 C143.167699,2.02502503 143.335397,2 143.52322,2 L143.885449,2.11261261 Z M139.216718,15.6636637 C140.611971,15.7137137 141.564499,15.7387387 142.074303,15.7387387 C143.254902,15.7387387 144.475748,15.7012012 145.736842,15.6261261 L145.857585,15.4384384 L142.597523,7.14264264 L139.136223,15.5135135 C139.136223,15.6136136 139.163055,15.6636637 139.216718,15.6636637 Z" id="Shape"></path>
                    <path d="M166.4375,11.4171429 C164.883929,11.4171429 163.665179,12.0857143 162.78125,13.4228571 C161.897321,14.76 161.455357,16.3157143 161.455357,18.09 C161.455357,19.9671429 161.977679,21.5935714 163.022321,22.9692857 C164.066964,24.345 165.513393,25.0328571 167.361607,25.0328571 C168.272321,25.0328571 168.982143,24.8335714 169.491071,24.435 C170,24.0364286 170.254464,23.5028571 170.254464,22.8342857 L170.254464,13.6542857 C170.254464,13.1142857 169.953125,12.6064286 169.350446,12.1307143 C168.747768,11.655 167.776786,11.4171429 166.4375,11.4171429 Z M166.959821,9.79714286 C168.111607,9.79714286 169.116071,10.0157143 169.973214,10.4528571 C170.160714,10.4528571 170.254464,10.2214286 170.254464,9.75857143 L170.254464,5.59285714 C170.254464,4.71857143 170.174107,3.89571429 170.013393,3.12428571 C169.879464,2.71285714 169.196429,2.50714286 167.964286,2.50714286 L167.602679,2.50714286 C167.441964,2.50714286 167.361607,2.36571429 167.361607,2.08285714 C167.361607,1.67142857 167.441964,1.46571429 167.602679,1.46571429 C168.40625,1.38857143 169.149554,1.28571429 169.832589,1.15714286 C170.515625,1.02857143 171.051339,0.9 171.439732,0.771428571 C171.828125,0.642857143 172.15625,0.520714286 172.424107,0.405 C172.691964,0.289285714 172.892857,0.192857143 173.026786,0.115714286 L173.1875,0 L173.267857,0 C173.375,0 173.482143,0.0707142857 173.589286,0.212142857 C173.696429,0.353571429 173.763393,0.488571429 173.790179,0.617142857 C173.495536,1.44 173.348214,2.55857143 173.348214,3.97285714 L173.348214,21.33 C173.348214,22.5642857 173.428571,23.5414286 173.589286,24.2614286 C173.642857,24.4414286 173.790179,24.5828571 174.03125,24.6857143 C174.272321,24.7885714 174.520089,24.8528571 174.774554,24.8785714 C175.029018,24.9042857 175.276786,24.9171429 175.517857,24.9171429 L175.879464,24.9557143 C175.959821,24.9814286 176,25.1357143 176,25.4185714 C176,25.8042857 175.919643,25.9971429 175.758929,25.9971429 C175.357143,26.0228571 174.908482,26.0742857 174.412946,26.1514286 C173.917411,26.2285714 173.448661,26.3121429 173.006696,26.4021429 C172.564732,26.4921429 172.15625,26.5821429 171.78125,26.6721429 C171.40625,26.7621429 171.098214,26.8457143 170.857143,26.9228571 L170.495536,27 C170.334821,27 170.254464,26.7814286 170.254464,26.3442857 L170.254464,25.8814286 C170.254464,25.7271429 170.200893,25.6757143 170.09375,25.7271429 C168.59375,26.5242857 167.174107,26.9228571 165.834821,26.9228571 C163.611607,26.9228571 161.75,26.1642857 160.25,24.6471429 C158.75,23.13 158,21.3171429 158,19.2085714 C158,16.7142857 158.917411,14.5221429 160.752232,12.6321429 C162.587054,10.7421429 164.65625,9.79714286 166.959821,9.79714286 Z" id="Shape"></path>
                    <path d="M192.852941,12.3303371 C192.852941,11.5153558 191.864706,11.1078652 189.888235,11.1078652 C189.778431,11.1078652 189.723529,10.9486891 189.723529,10.6303371 C189.723529,10.311985 189.778431,10.1018727 189.888235,10 C190.190196,10.0254682 190.752941,10.0636704 191.576471,10.1146067 C192.4,10.1655431 193.141176,10.1910112 193.8,10.1910112 L197.917647,10 C197.972549,10.152809 198,10.3438202 198,10.5730337 C198,10.929588 197.903922,11.1078652 197.711765,11.1078652 C197.327451,11.1078652 196.819608,11.2097378 196.188235,11.4134831 C195.556863,11.6172285 195.131373,11.9483146 194.911765,12.4067416 L188.364706,26.1213483 C188.309804,26.2996255 188.145098,26.4906367 187.870588,26.694382 C187.596078,26.8981273 187.362745,27 187.170588,27 C186.978431,27 186.854902,26.9490637 186.8,26.847191 C186.333333,25.9048689 185.310784,23.7146067 183.732353,20.2764045 C182.153922,16.8382022 180.77451,14.0367041 179.594118,11.8719101 C179.319608,11.3625468 178.509804,11.1078652 177.164706,11.1078652 C177.054902,11.1078652 177,10.9423221 177,10.611236 C177,10.305618 177.054902,10.1018727 177.164706,10 C179.992157,10.1273408 181.419608,10.1910112 181.447059,10.1910112 L185.564706,10 C185.619608,10.1018727 185.626471,10.311985 185.585294,10.6303371 C185.544118,10.9486891 185.482353,11.1078652 185.4,11.1078652 C184.054902,11.1078652 183.382353,11.3243446 183.382353,11.7573034 C183.382353,11.8082397 183.396078,11.859176 183.423529,11.9101124 L188.364706,22.2629213 L192.523529,13.4764045 C192.743137,12.9925094 192.852941,12.6104869 192.852941,12.3303371 Z" id="Path"></path>
                    <path d="M201.724398,5.32817337 C201.34488,4.94117647 201.15512,4.47678019 201.15512,3.93498452 C201.15512,3.39318885 201.351657,2.93524252 201.744729,2.56114551 C202.137801,2.1870485 202.618976,2 203.188253,2 C203.75753,2 204.238705,2.1870485 204.631777,2.56114551 C205.024849,2.93524252 205.221386,3.39318885 205.221386,3.93498452 C205.221386,4.47678019 205.024849,4.93472652 204.631777,5.30882353 C204.238705,5.68292054 203.75753,5.86996904 203.188253,5.86996904 C202.618976,5.86996904 202.131024,5.68937049 201.724398,5.32817337 Z M205.058735,21.6594427 C205.058735,23.1558308 205.167169,24.3039216 205.384036,25.1037152 C205.438253,25.2843137 205.790663,25.4584623 206.441265,25.626161 C207.091867,25.7938596 207.552711,25.877709 207.823795,25.877709 C207.90512,25.877709 207.959337,26.0325077 207.986446,26.3421053 C208.013554,26.6517028 208,26.871001 207.945783,27 C205.23494,26.871001 203.784639,26.8065015 203.59488,26.8065015 C203.40512,26.8065015 201.927711,26.871001 199.162651,27 C199.054217,26.8968008 199,26.6839525 199,26.3614551 C199,26.0389577 199.054217,25.877709 199.162651,25.877709 C199.487952,25.877709 199.969127,25.7938596 200.606175,25.626161 C201.243223,25.4584623 201.588855,25.2843137 201.643072,25.1037152 C201.832831,24.3555212 201.927711,23.4525284 201.927711,22.3947368 L201.927711,15.0804954 C201.927711,14.0743034 201.737952,13.377709 201.358434,12.9907121 C201.087349,12.6811146 200.755271,12.4682663 200.362199,12.3521672 C199.969127,12.2360681 199.643825,12.1780186 199.386295,12.1780186 C199.128765,12.1780186 199,12.1522188 199,12.1006192 C199,11.4814241 199.081325,11.1589267 199.243976,11.1331269 C202.11747,10.7203302 203.987952,10.3849329 204.855422,10.126935 L204.936747,10.0882353 C204.990964,10.0882353 205.031627,10.0882353 205.058735,10.0882353 C205.167169,10.0882353 205.23494,10.1978844 205.262048,10.4171827 C205.289157,10.6364809 205.289157,10.7977296 205.262048,10.9009288 C205.126506,11.9329205 205.058735,12.8617131 205.058735,13.6873065 L205.058735,21.6594427 Z" id="Shape"></path>
                    <path d="M216.25,10 C216.861111,10 217.631944,10.0695685 218.5625,10.2087054 C219.493056,10.3478423 220.138889,10.4427083 220.5,10.4933036 C220.777778,11.656994 220.944444,12.9471726 221,14.3638393 C221,14.4903274 220.819444,14.5535714 220.458333,14.5535714 C220.069444,14.5535714 219.861111,14.4650298 219.833333,14.2879464 C219.694444,13.5796131 219.298611,12.9092262 218.645833,12.2767857 C217.993056,11.6443452 217.25,11.328125 216.416667,11.328125 C214.416667,11.328125 213.416667,12.0744048 213.416667,13.5669643 C213.416667,13.9464286 213.472222,14.281622 213.583333,14.5725446 C213.694444,14.8634673 213.909722,15.1417411 214.229167,15.4073661 C214.548611,15.6729911 214.791667,15.8627232 214.958333,15.9765625 C215.125,16.0904018 215.493056,16.2927827 216.0625,16.5837054 C216.631944,16.874628 216.986111,17.0580357 217.125,17.1339286 C217.236111,17.1845238 217.5625,17.3552827 218.104167,17.6462054 C218.645833,17.937128 219.027778,18.1458333 219.25,18.2723214 C219.472222,18.3988095 219.798611,18.6138393 220.229167,18.9174107 C220.659722,19.2209821 220.972222,19.4929315 221.166667,19.7332589 C221.361111,19.9735863 221.548611,20.2771577 221.729167,20.6439732 C221.909722,21.0107887 222,21.3839286 222,21.7633929 C222,23.2559524 221.361111,24.5018601 220.083333,25.5011161 C218.805556,26.500372 217.305556,27 215.583333,27 C215,27 214.465278,26.968378 213.979167,26.9051339 C213.493056,26.8418899 212.916667,26.734375 212.25,26.5825893 C211.583333,26.4308036 211.069444,26.3296131 210.708333,26.2790179 C210.541667,25.874256 210.381944,25.2418155 210.229167,24.3816964 C210.076389,23.5215774 210,22.8385417 210,22.3325893 C210.222222,22.1808036 210.388889,22.1049107 210.5,22.1049107 C210.916667,22.1049107 211.138889,22.1808036 211.166667,22.3325893 C211.333333,23.0915179 211.854167,23.8314732 212.729167,24.5524554 C213.604167,25.2734375 214.555556,25.6339286 215.583333,25.6339286 C216.472222,25.6339286 217.201389,25.4125744 217.770833,24.9698661 C218.340278,24.5271577 218.625,23.8883929 218.625,23.0535714 C218.625,22.6235119 218.534722,22.2250744 218.354167,21.8582589 C218.173611,21.4914435 217.881944,21.1625744 217.479167,20.8716518 C217.076389,20.5807292 216.701389,20.3404018 216.354167,20.1506696 C216.006944,19.9609375 215.513889,19.7142857 214.875,19.4107143 C214.236111,19.1071429 213.763889,18.8668155 213.458333,18.6897321 C211.291667,17.5513393 210.208333,16.1979167 210.208333,14.6294643 C210.208333,13.2633929 210.8125,12.1502976 212.020833,11.2901786 C213.229167,10.4300595 214.638889,10 216.25,10 Z" id="Path"></path>
                    <path d="M239.057803,2.22522523 C239.597303,2.22522523 240.123314,2.21271271 240.635838,2.18768769 C241.148362,2.16266266 241.701349,2.13138138 242.294798,2.09384384 C242.888247,2.05630631 243.373796,2.02502503 243.751445,2 C243.805395,2.15015015 243.83237,2.33783784 243.83237,2.56306306 C243.83237,2.91341341 243.77842,3.08858859 243.67052,3.08858859 C243.400771,3.08858859 242.915222,3.17617618 242.213873,3.35135135 C241.512524,3.52652653 241.134875,3.7017017 241.080925,3.87687688 C240.83815,4.75275275 240.716763,5.91641642 240.716763,7.36786787 L240.716763,21.5195195 C240.716763,22.8458458 240.83815,23.9469469 241.080925,24.8228228 C241.16185,25.0730731 242.078998,25.1981982 243.83237,25.1981982 L245.774566,25.1981982 C248.283237,25.1981982 249.982659,24.9854855 250.872832,24.5600601 C251.277457,24.3598599 251.729287,23.9156657 252.228324,23.2274775 C252.72736,22.5392893 253.125241,21.7197197 253.421965,20.7687688 C253.475915,20.6186186 253.66474,20.5435435 253.988439,20.5435435 C254.500963,20.5435435 254.83815,20.6186186 255,20.7687688 C254.865125,21.0940941 254.656069,21.6133634 254.372832,22.3265766 C254.089595,23.0397898 253.867052,23.6153654 253.705202,24.0533033 C253.543353,24.4912412 253.368015,24.997998 253.179191,25.5735736 C252.990366,26.1491491 252.868979,26.6246246 252.815029,27 C251.412331,27 249.220617,26.9624625 246.239884,26.8873874 C243.259152,26.8123123 240.851638,26.7747748 239.017341,26.7747748 L234.121387,26.8873874 C234.040462,26.8123123 234,26.6121121 234,26.2867868 C234,25.9614615 234.040462,25.7987988 234.121387,25.7987988 C234.499037,25.7987988 235.025048,25.7237237 235.699422,25.5735736 C236.373796,25.4234234 236.77842,25.2357357 236.913295,25.0105105 C237.102119,24.7102102 237.196532,23.534034 237.196532,21.481982 L237.196532,7.29279279 C237.196532,5.69119119 237.102119,4.55255255 236.913295,3.87687688 C236.83237,3.67667668 236.447977,3.49524525 235.760116,3.33258258 C235.072254,3.16991992 234.552987,3.08858859 234.202312,3.08858859 C234.094412,3.08858859 234.040462,2.92592593 234.040462,2.6006006 C234.040462,2.3003003 234.094412,2.1001001 234.202312,2 C234.552987,2.02502503 235.267823,2.06881882 236.346821,2.13138138 C237.425819,2.19394394 238.32948,2.22522523 239.057803,2.22522523 Z" id="Path"></path>
                    <path d="M261.981308,2.07564297 C263.007269,2.07564297 264.309969,2.0630358 265.889408,2.03782148 C267.468847,2.01260716 268.515057,2 269.028037,2 C273.428868,2 276.857736,3.21028744 279.314642,5.63086233 C281.771547,8.05143722 283,10.9006556 283,14.1785174 C283,17.834594 281.758048,20.885527 279.274143,23.3313162 C276.790239,25.7771054 273.361371,27 268.987539,27 C268.663551,27 267.698339,26.9747857 266.0919,26.924357 C264.485462,26.8739284 263.142264,26.8613212 262.062305,26.8865356 L257.161994,27 C257.080997,26.924357 257.040498,26.7352496 257.040498,26.4326778 C257.040498,26.0796773 257.080997,25.903177 257.161994,25.903177 C257.51298,25.903177 258.03271,25.8149269 258.721184,25.6384266 C259.409657,25.4619264 259.821391,25.2602118 259.956386,25.0332829 C260.145379,24.730711 260.239875,23.5456379 260.239875,21.4780635 L260.239875,7.18154312 C260.239875,5.69389813 260.145379,4.6096823 259.956386,3.92889561 C259.875389,3.72718104 259.477155,3.53807363 258.761682,3.36157337 C258.04621,3.18507312 257.51298,3.096823 257.161994,3.096823 C257.053998,3.096823 257,2.94553707 257,2.6429652 C257,2.31517902 257.053998,2.10085729 257.161994,2 C258.56594,2.05042864 260.172378,2.07564297 261.981308,2.07564297 Z M263.76324,6.65204236 L263.76324,21.6293495 C263.76324,22.688351 263.965732,23.6464952 264.370717,24.5037821 C264.478712,24.7559254 265.200935,24.9450328 266.537383,25.0711044 C267.873832,25.197176 268.906542,25.2602118 269.635514,25.2602118 C275.845275,25.2602118 278.950156,21.515885 278.950156,14.0272315 C278.950156,11.1527988 278.133437,8.70700958 276.5,6.68986384 C274.866563,4.6727181 272.483904,3.66414523 269.352025,3.66414523 L269.149533,3.66414523 C266.233645,3.66414523 264.613707,3.86585981 264.28972,4.26928896 C263.938733,4.72314675 263.76324,5.51739788 263.76324,6.65204236 Z" id="Shape"></path>
                    <path d="M299.885449,2.11261261 L307.934985,21.9324324 C308.417957,23.1086086 308.807018,24.0095095 309.102167,24.6351351 C309.263158,25.0105105 309.679051,25.3170671 310.349845,25.5548048 C311.02064,25.7925425 311.517028,25.9114114 311.839009,25.9114114 C311.946336,25.9114114 312,26.1491491 312,26.6246246 C312,26.7247247 311.973168,26.8498498 311.919505,27 C309.236326,26.8748749 307.760578,26.8123123 307.49226,26.8123123 C307.465428,26.8123123 305.909185,26.8748749 302.823529,27 C302.716202,26.8998999 302.669247,26.6934434 302.682663,26.3806306 C302.696078,26.0678178 302.75645,25.9114114 302.863777,25.9114114 C303.185759,25.9114114 303.588235,25.8488488 304.071207,25.7237237 C304.55418,25.5985986 304.835913,25.4359359 304.916409,25.2357357 C304.970072,25.0355355 304.996904,24.8353353 304.996904,24.6351351 C304.996904,24.3098098 304.949948,23.9281782 304.856037,23.4902402 C304.762126,23.0523023 304.674923,22.7082082 304.594427,22.457958 L304.433437,22.045045 L302.783282,17.8033033 C302.702786,17.7032032 302.622291,17.6531532 302.541796,17.6531532 C301.495356,17.5780781 300.475748,17.5405405 299.482972,17.5405405 C298.087719,17.5405405 296.383901,17.6031031 294.371517,17.7282282 L294.170279,17.8408408 L292.439628,21.96997 C291.983488,23.2212212 291.755418,24.0845846 291.755418,24.5600601 C291.755418,24.9104104 291.862745,25.1606607 292.077399,25.3108108 C292.318885,25.485986 292.707946,25.6298799 293.244582,25.7424925 C293.781218,25.8551051 294.170279,25.9114114 294.411765,25.9114114 C294.49226,25.9114114 294.539216,26.0615616 294.552632,26.3618619 C294.566047,26.6621622 294.545924,26.8748749 294.49226,27 C291.809082,26.8748749 290.427245,26.8123123 290.346749,26.8123123 C289.810114,26.8123123 289.340557,26.8248248 288.93808,26.8498498 C288.535604,26.8748749 288.086171,26.8998999 287.589783,26.9249249 C287.093395,26.9499499 286.617131,26.974975 286.160991,27 C286.053664,26.8998999 286,26.7122122 286,26.4369369 C286,26.0865866 286.053664,25.9114114 286.160991,25.9114114 C286.482972,25.9114114 286.898865,25.8488488 287.408669,25.7237237 C287.918473,25.5985986 288.267286,25.4234234 288.455108,25.1981982 C289.018576,24.5225225 289.649123,23.3463463 290.346749,21.6696697 L297.349845,4.89039039 C297.403509,4.76526527 297.477296,4.56506507 297.571207,4.28978979 C297.665119,4.01451451 297.738906,3.80805806 297.79257,3.67042042 C297.846233,3.53278278 297.926729,3.35760761 298.034056,3.14489489 C298.141383,2.93218218 298.235294,2.77577578 298.315789,2.67567568 C298.396285,2.57557558 298.496904,2.46296296 298.617647,2.33783784 C298.73839,2.21271271 298.872549,2.12512513 299.020124,2.07507508 C299.167699,2.02502503 299.335397,2 299.52322,2 L299.885449,2.11261261 Z M295.216718,15.6636637 C296.611971,15.7137137 297.564499,15.7387387 298.074303,15.7387387 C299.254902,15.7387387 300.475748,15.7012012 301.736842,15.6261261 L301.857585,15.4384384 L298.597523,7.14264264 L295.136223,15.5135135 C295.136223,15.6136136 295.163055,15.6636637 295.216718,15.6636637 Z" id="Shape"></path>
                </g>
            </g>
        </g>
    </g>
</svg>