<?xml version="1.0" encoding="UTF-8"?>
<svg width="322px" height="30px" viewBox="0 0 322 30" version="1.1" xmlns="http://www.w3.org/2000/svg" xmlns:xlink="http://www.w3.org/1999/xlink">
    <title>EBDFB687-F699-4AC5-B354-464AF50723D5</title>
    <g id="Desktop" stroke="none" stroke-width="1" fill="none" fill-rule="evenodd">
        <g id="Groupe-Capvest" transform="translate(-100.000000, -4111.000000)" fill="#344856">
            <g id="FILIALES" transform="translate(100.000000, 3960.000000)">
                <g id="Groupe-Capvest-logo-filiales-capvest" transform="translate(0.000000, 151.000000)">
                    <path d="M86.0304943,8.7534417 C84.9902077,4.31235096 80.1153762,1.05843116 75.3960693,1.21395574 C69.7522551,1.39885718 64.3866571,6.41538887 64.3866571,15.0003456 C64.3866571,22.2235983 69.37554,28.1715494 76.7698697,28.1715494 C81.4200546,28.1715494 84.9919358,25.8352246 86.0304943,21.0329712 L87.5667316,21.0329712 L87.3593655,27.7049756 C84.2022165,29.0217504 79.3861387,29.9998272 76.0630969,29.9998272 C66.760999,29.9998272 60.1978618,23.9654735 60.1978618,15.4254461 C60.1978618,7.98964322 65.5962928,0.000864025437 76.643722,0.000864025437 C79.7179245,0.000864025437 82.9148186,0.679988019 86.3622801,1.99676278 L87.3593655,8.7534417 L86.0304943,8.7534417 Z" id="Fill-1"></path>
                    <path d="M115.388005,4.30180985 L110.138186,16.2201767 L121.168335,16.2184487 L115.388005,4.30180985 Z M122.134316,17.7011163 L109.37266,17.6613712 L107.188404,22.7746737 C106.066899,25.6363259 107.21778,27.9553702 110.374929,28.117807 L110.314448,29.4743269 L100.642547,29.4743269 L100.642547,28.1765607 C102.800882,27.644321 103.685645,26.4744306 104.888368,23.5298319 L115.151262,0.526018686 L117.983537,0.526018686 L129.544198,25.1559278 C130.373662,27.0377752 131.363835,27.9035287 132.901801,27.9035287 L132.848231,29.4743269 L121.513945,29.4743269 L121.513945,28.2439547 C124.836987,27.9173531 125.9343,26.9375482 124.895741,24.4819879 L122.134316,17.7011163 Z" id="Fill-3"></path>
                    <path d="M149.157575,6.12680437 C149.157575,3.67297213 149.027971,2.10390194 144.377786,2.04687626 L144.377786,0.597041577 L161.710137,0.593585475 C167.943216,0.593585475 171.368213,3.79566374 171.368213,8.254035 C171.368213,13.0390079 168.266362,16.1615958 161.238379,16.1615958 C159.824833,16.1615958 152.862516,16.1650519 152.862516,16.1650519 L152.862516,14.8258125 L160.353617,14.8258125 C164.476746,14.8258125 167.372959,11.9002223 167.372959,8.66876721 C167.372959,5.6826953 166.605705,2.04687626 159.292594,2.16265567 L152.92127,2.16265567 L152.862516,23.132553 C152.862516,27.1986567 153.410308,28.2441275 157.581823,28.2441275 L157.581823,29.4053777 L144.723397,29.4053777 L144.78215,28.2441275 C148.71865,28.2441275 149.147207,26.6180316 149.157575,22.9372833 L149.157575,6.12680437 Z" id="Fill-5"></path>
                    <path d="M197.395251,25.5234842 C197.754686,24.6542746 205.653606,7.57421979 205.653606,7.57421979 C207.010126,3.56514176 205.119639,2.33304148 202.408327,1.82326648 L202.408327,0.64300773 L212.142437,0.64300773 L212.142437,1.88202021 C210.936258,2.25009504 210.523254,2.48683801 209.899427,3.10029607 C208.987017,4.00061058 204.945106,13.2093937 204.945106,13.2093937 L197.690748,29.356301 L194.860201,29.356301 C194.860201,29.356301 193.254841,25.720482 192.382176,23.8386346 L183.888806,5.65608332 C182.35084,2.38488301 181.543841,2.19652547 179.881456,2.19652547 L179.881456,0.64300773 L191.219197,0.64300773 L191.219197,1.82326648 C187.398477,1.98570326 186.838589,3.79324447 188.665138,7.51546606 C188.665138,7.51546606 196.805986,24.2170778 197.395251,25.5234842" id="Fill-7"></path>
                    <path d="M247.964414,29.4057233 L223.486573,29.4057233 L223.481389,27.8470214 C227.143129,28.0129143 228.027891,27.0469339 228.027891,24.06259 L228.027891,4.77754225 C228.027891,2.07832679 226.77851,1.78455814 223.413995,1.78455814 L223.413995,0.593931085 L247.257641,0.593931085 L247.433902,6.69395067 L246.19489,6.7527044 C245.014631,2.85940578 242.714595,1.813935 238.41002,1.87268873 L231.941926,1.87268873 L231.941926,13.7219336 L237.464777,13.7219336 C241.370172,13.7219336 243.333237,12.2116171 243.540603,9.30849164 L244.720862,9.30849164 L244.77616,19.4728869 L243.423096,19.5886663 C243.540603,16.1049157 241.214647,15.0006912 237.642766,15.0006912 L231.921189,15.0006912 L231.921189,22.4935198 C231.779489,26.9657155 231.862436,28.1286937 236.69925,27.9541606 L238.821296,27.8954068 C243.431736,27.8954068 246.072198,26.4196514 248.023167,22.5747382 L249.3866,22.5747382 L247.964414,29.4057233 Z" id="Fill-9"></path>
                    <path d="M260.534947,20.4659977 L262.079824,20.5212953 C262.911017,24.7360114 264.013513,28.0400447 270.396933,27.9588263 C276.471032,27.8827921 277.592537,24.1190973 276.991175,21.8605348 C276.483128,19.9493105 275.195731,19.2373535 274.601281,18.8606385 C273.035667,17.8238079 266.657431,14.6528346 262.539486,11.1137864 C261.568321,9.87477391 261.093107,8.7636372 261.24172,6.64159073 C261.461182,3.53973941 264.367764,0.176952409 270.623308,0.194166598 C273.40547,0.199417071 276.846019,0.83015564 279.586708,2.34220015 L279.586708,8.09315346 L278.052199,8.09315346 C278.052199,4.08580349 274.485502,1.58704192 270.623308,1.58704192 C267.756472,1.58704192 265.193772,2.75347626 264.84125,5.01549486 C264.507736,7.14272548 265.347569,7.83221778 265.724284,8.20893287 C268.439052,10.4173819 276.061484,14.3590659 277.995173,15.9350483 C279.586708,17.1014827 280.82572,18.810525 280.82572,20.815064 C280.82572,26.4277732 277.167437,29.2946096 271.682603,29.7594553 C267.936189,30.0774167 263.059629,28.7139845 260.98424,27.6512333 L260.534947,20.4659977 Z" id="Fill-11"></path>
                    <path d="M304.337753,1.87925533 L298.498669,1.87925533 C294.800641,1.87925533 292.8946,4.31926316 291.714342,7.51442922 L290.535811,7.51442922 L290.947087,0.586673272 L321.545684,0.586673272 L322.003617,7.51442922 L320.911489,7.51442922 C318.965704,3.75073442 318.077486,1.87925533 314.422658,1.87925533 L308.229324,1.87925533 L308.288078,22.3773948 C308.407313,27.6635024 308.820317,28.0695944 312.713616,28.0782346 L312.713616,29.4140179 L299.796436,29.4140179 L299.796436,28.1352603 C303.629252,28.1871018 304.279,28.1871018 304.337753,22.3186411 L304.337753,1.87925533 Z" id="Fill-13"></path>
                    <path d="M0,15.5517666 C0,22.8717901 7.00724629,29.9758073 14.3998479,29.9758073 L14.4966188,15.5517666 L14.3998479,0.0874393742 C6.45599806,0.0874393742 0,6.9598977 0,15.5517666" id="Fill-16"></path>
                    <polygon id="Fill-18" points="14.7964356 29.9930878 27.9313503 30 27.9382625 15.3167517"></polygon>
                    <polygon id="Fill-21" points="14.7964356 0.0069122035 27.9313503 0 27.9313503 14.0023962"></polygon>
                </g>
            </g>
        </g>
    </g>
</svg>