<svg width="190" height="18" viewBox="0 0 190 18" xmlns="http://www.w3.org/2000/svg">
    <g fill="#344856" fill-rule="evenodd">
        <path d="M51.102 5.252C50.494 2.587 47.644.635 44.885.728c-3.3.11-6.436 3.12-6.436 8.272 0 4.334 2.916 7.903 7.24 7.903 2.718 0 4.806-1.402 5.413-4.283H52l-.121 4.003c-1.846.79-4.661 1.377-6.604 1.377C39.837 18 36 14.38 36 9.255 36 4.793 39.156 0 45.614 0c1.798 0 3.666.407 5.682 1.198l.583 4.054h-.777zM67.685 2.217l-3.092 7 6.496-.002-3.404-6.998zm3.973 7.87-7.516-.024-1.287 3.003c-.66 1.68.018 3.042 1.877 3.137l-.035.797H59v-.762c1.271-.313 1.792-1 2.5-2.729L67.546 0h1.668l6.81 14.464c.488 1.105 1.071 1.614 1.977 1.614l-.032.922h-6.675v-.723c1.957-.191 2.603-.767 1.992-2.209l-1.627-3.982zM87.833 3.265c0-1.448-.076-2.374-2.833-2.408V.002L95.275 0C98.97 0 101 1.89 101 4.52c0 2.823-1.839 4.666-6.005 4.666l-4.965.002v-.79h4.44c2.445 0 4.162-1.727 4.162-3.633 0-1.762-.455-3.908-4.79-3.84h-3.777L90.03 13.3c0 2.399.325 3.016 2.797 3.016V17h-7.622l.035-.685c2.333 0 2.587-.96 2.593-3.131v-9.92zM116.315 14.73c.211-.514 4.863-10.626 4.863-10.626.8-2.374-.314-3.103-1.91-3.405V0H125v.734c-.71.217-.954.358-1.321.72-.537.534-2.918 5.986-2.918 5.986L116.49 17h-1.667s-.946-2.153-1.46-3.267L108.36 2.968C107.454 1.031 106.98.92 106 .92V0h6.677v.699c-2.25.096-2.58 1.166-1.504 3.37 0 0 4.795 9.888 5.142 10.662M146.179 17h-14.137l-.003-.92c2.115.098 2.626-.472 2.626-2.233V2.468c0-1.592-.722-1.765-2.665-1.765V0h13.77l.102 3.6-.715.034c-.682-2.297-2.01-2.914-4.496-2.88h-3.736v6.992h3.19c2.255 0 3.389-.891 3.509-2.604h.681l.032 5.997-.781.069c.068-2.056-1.276-2.707-3.338-2.707h-3.305v4.42c-.082 2.64-.034 3.326 2.76 3.223l1.225-.035c2.663 0 4.188-.87 5.315-3.14H147L146.179 17zM154 11.638l.914.032c.491 2.42 1.143 4.316 4.918 4.27 3.593-.044 4.256-2.205 3.9-3.502-.3-1.097-1.062-1.506-1.413-1.722-.926-.595-4.698-2.415-7.134-4.447-.574-.711-.855-1.35-.767-2.568.13-1.78 1.849-3.71 5.548-3.701 1.646.003 3.68.365 5.301 1.233v3.302h-.907c0-2.3-2.11-3.735-4.394-3.735-1.695 0-3.21.67-3.42 1.968-.196 1.221.3 1.617.523 1.833 1.606 1.268 6.113 3.53 7.257 4.436.941.67 1.674 1.65 1.674 2.801 0 3.222-2.164 4.868-5.407 5.135-2.216.183-5.1-.6-6.327-1.21L154 11.638zM179.333.762h-3.525c-2.233 0-3.384 1.44-4.096 3.323H171L171.248 0h18.476L190 4.085h-.66c-1.174-2.22-1.71-3.323-3.917-3.323h-3.74l.036 12.088c.072 3.118.321 3.357 2.672 3.362V17h-7.8v-.754c2.315.03 2.707.03 2.742-3.43V.762zM0 9.313C0 13.722 4.35 18 8.94 18L9 9.313 8.94 0C4.008 0 0 4.139 0 9.313M9 17.996l7.996.004L17 9zM9 .004 17 0v8z"/>
    </g>
</svg>
